<mxfile host="app.diagrams.net" modified="2024-03-09T15:11:58.502Z" agent="Mozilla/5.0 (Macintosh; Intel Mac OS X 10_15_7) AppleWebKit/537.36 (KHTML, like Gecko) Chrome/101.0.0.0 Safari/537.36" version="24.0.4" etag="URRN3Q8aGHUZ5zARgKXj" type="github">
  <diagram name="Страница — 1" id="ZPeC6zfS1JedZs_KMKwM">
    <mxGraphModel>
      <root>
        <mxCell id="0" />
        <mxCell id="1" parent="0" />
      </root>
    </mxGraphModel>
  </diagram>
</mxfile>
